<svg width="32" height="32" viewBox="0 0 32 32" fill="none" xmlns="http://www.w3.org/2000/svg">
<path d="M0 8C0 3.58172 3.58172 0 8 0H24C28.4183 0 32 3.58172 32 8V24C32 28.4183 28.4183 32 24 32H8C3.58172 32 0 28.4183 0 24V8Z" fill="#EDF0F2"/>
<path d="M2 10C2 5.58172 5.58172 2 10 2H22C26.4183 2 30 5.58172 30 10V22C30 26.4183 26.4183 30 22 30H10C5.58172 30 2 26.4183 2 22V10Z" fill="#EDF0F2"/>
<path d="M16.0001 16.0003C18.5784 16.0003 20.6667 13.912 20.6667 11.3337C20.6667 8.75533 18.5784 6.66699 16.0001 6.66699C13.4217 6.66699 11.3334 8.75533 11.3334 11.3337C11.3334 13.912 13.4217 16.0003 16.0001 16.0003ZM16.0001 18.3337C12.8851 18.3337 6.66675 19.897 6.66675 23.0003V25.3337H25.3334V23.0003C25.3334 19.897 19.1151 18.3337 16.0001 18.3337Z" fill="#BEBECC"/>
</svg>
