<svg width="17" height="17" viewBox="0 0 17 17" fill="none" xmlns="http://www.w3.org/2000/svg">
<path d="M13.9997 7.16683C13.9997 11.1668 8.66634 15.1668 8.66634 15.1668C8.66634 15.1668 3.33301 11.1668 3.33301 7.16683C3.33301 5.75234 3.89491 4.39579 4.8951 3.39559C5.8953 2.3954 7.25185 1.8335 8.66634 1.8335C10.0808 1.8335 11.4374 2.3954 12.4376 3.39559C13.4378 4.39579 13.9997 5.75234 13.9997 7.16683Z" stroke="#7E7E7F" stroke-width="1.25" stroke-linecap="round" stroke-linejoin="round"/>
<path d="M8.6665 9.1665C9.77107 9.1665 10.6665 8.27107 10.6665 7.1665C10.6665 6.06193 9.77107 5.1665 8.6665 5.1665C7.56193 5.1665 6.6665 6.06193 6.6665 7.1665C6.6665 8.27107 7.56193 9.1665 8.6665 9.1665Z" stroke="#7E7E7F" stroke-width="1.25" stroke-linecap="round" stroke-linejoin="round"/>
</svg>
